<?xml version="1.0" encoding="UTF-8" standalone="no"?>
<!-- Created with Inkscape (http://www.inkscape.org/) -->

<svg
   width="14.025205mm"
   height="16.910725mm"
   viewBox="0 0 14.025205 16.910725"
   version="1.1"
   id="svg1"
   xml:space="preserve"
   xmlns="http://www.w3.org/2000/svg"
   xmlns:svg="http://www.w3.org/2000/svg"><defs
     id="defs1" /><g
     id="layer1"
     transform="translate(-35.647243,-150.07751)"><g
       id="g17-0-3"
       transform="translate(3.6297248,45.918464)"><g
         id="g15-6-5"
         transform="translate(-0.14247165,-0.27082082)"
         style="stroke:#fdfcf0;stroke-opacity:1"><path
           style="fill:none;stroke:#fdfcf0;stroke-width:1.07416;stroke-linecap:round;stroke-linejoin:round;stroke-dasharray:none;stroke-opacity:1"
           d="m 39.17131,108.84941 c 0,0 0.07649,-1.75379 -3.010383,-2.88473 -3.385328,-1.24029 -3.463857,-0.9725 -3.463857,-0.9725 v 13.62596 c 0,0 0.01096,2.13067 2.087055,2.14168 l 8.238951,0.0437 c 0,0 1.912223,-0.1639 1.912223,-2.15261 0,-1.98871 -1.912223,-2.07613 -1.912223,-2.07613 l -3.868155,-0.0109 z"
           id="path14-7-5-1-1-6" /><path
           style="fill:none;stroke:#fdfcf0;stroke-width:1.07416;stroke-linecap:round;stroke-linejoin:round;stroke-dasharray:none;stroke-opacity:1"
           d="m 34.783644,107.80345 v 10.78626 h 7.81927"
           id="path15-0-6-2-0-2" /><path
           style="fill:none;stroke:#fdfcf0;stroke-width:1.07416;stroke-linecap:round;stroke-linejoin:round;stroke-dasharray:none;stroke-opacity:1"
           d="m 39.177125,108.84074 c 0,0 -0.209231,-1.85288 3.17175,-2.87621 l 3.27738,-0.99198 0.02186,10.60788"
           id="path16-9-2-9-6-9" /></g></g></g></svg>
