<?xml version="1.0" encoding="UTF-8" standalone="no"?>
<!-- Created with Inkscape (http://www.inkscape.org/) -->

<svg
   width="26.881369mm"
   height="26.881363mm"
   viewBox="0 0 26.881369 26.881363"
   version="1.1"
   id="svg1"
   xml:space="preserve"
   xmlns="http://www.w3.org/2000/svg"
   xmlns:svg="http://www.w3.org/2000/svg"><defs
     id="defs1" /><g
     id="layer1"
     transform="translate(-136.4135,-108.66271)"><g
       id="g17"
       transform="translate(110.82407,9.488975)"><circle
         style="fill:#ffffff;fill-opacity:1;stroke:#ffffff;stroke-width:1.1;stroke-linecap:round;stroke-linejoin:round;stroke-dasharray:none;stroke-opacity:1"
         id="path16"
         cx="39.030121"
         cy="112.61442"
         r="12.890683" /><g
         id="g15"
         transform="translate(-0.14247165,-0.27082082)"><path
           style="fill:none;stroke:#2563eb;stroke-width:1.07416;stroke-linecap:round;stroke-linejoin:round;stroke-dasharray:none;stroke-opacity:1"
           d="m 39.17131,108.84941 c 0,0 0.07649,-1.75379 -3.010383,-2.88473 -3.385328,-1.24029 -3.463857,-0.9725 -3.463857,-0.9725 v 13.62596 c 0,0 0.01096,2.13067 2.087055,2.14168 l 8.238951,0.0437 c 0,0 1.912223,-0.1639 1.912223,-2.15261 0,-1.98871 -1.912223,-2.07613 -1.912223,-2.07613 l -3.868155,-0.0109 z"
           id="path14-7-5-1" /><path
           style="fill:none;stroke:#2563eb;stroke-width:1.07416;stroke-linecap:round;stroke-linejoin:round;stroke-dasharray:none;stroke-opacity:1"
           d="m 34.783644,107.80345 v 10.78626 h 7.81927"
           id="path15-0-6-2" /><path
           style="fill:none;stroke:#2563eb;stroke-width:1.07416;stroke-linecap:round;stroke-linejoin:round;stroke-dasharray:none;stroke-opacity:1"
           d="m 39.177125,108.84074 c 0,0 -0.209231,-1.85288 3.17175,-2.87621 l 3.27738,-0.99198 0.02186,10.60788"
           id="path16-9-2-9" /></g></g></g></svg>
